<?xml version="1.0" encoding="utf-8"?>
<?xml-stylesheet type="text/css" href="../css/mystyle.min.css"?>
<!-- Generator: Adobe Illustrator 15.0.0, SVG Export Plug-In . SVG Version: 6.00 Build 0)  -->
<!DOCTYPE svg PUBLIC "-//W3C//DTD SVG 1.1//EN" "http://www.w3.org/Graphics/SVG/1.1/DTD/svg11.dtd">
<svg version="1.1" xmlns="http://www.w3.org/2000/svg" xmlns:xlink="http://www.w3.org/1999/xlink" xml:space="preserve" viewBox="0 0 725 415" preserveAspectRatio="xMidYMid meet">
<g id="keyboard">
	<rect x="229.726" y="332.648" fill="#E4E7ED" width="232.558" height="79.262"/>
	<path fill="#FFFFFF" d="M249.998,348.16c0,0.797-0.646,1.443-1.443,1.443h-10.466c-0.797,0-1.443-0.646-1.443-1.443v-9.744
		c0-0.797,0.646-1.443,1.443-1.443h10.466c0.797,0,1.443,0.646,1.443,1.443V348.16z"/>
	<path fill="#FFFFFF" d="M265.135,348.16c0,0.797-0.645,1.443-1.442,1.443h-10.466c-0.797,0-1.443-0.646-1.443-1.443v-9.744
		c0-0.797,0.646-1.443,1.443-1.443h10.466c0.797,0,1.442,0.646,1.442,1.443V348.16z"/>
	<path fill="#FFFFFF" d="M280.272,348.16c0,0.797-0.646,1.443-1.443,1.443h-10.466c-0.797,0-1.442-0.646-1.442-1.443v-9.744
		c0-0.797,0.645-1.443,1.442-1.443h10.466c0.797,0,1.443,0.646,1.443,1.443V348.16z"/>
	<path fill="#FFFFFF" d="M295.41,348.16c0,0.797-0.646,1.443-1.443,1.443h-10.466c-0.797,0-1.443-0.646-1.443-1.443v-9.744
		c0-0.797,0.646-1.443,1.443-1.443h10.466c0.797,0,1.443,0.646,1.443,1.443V348.16z"/>
	<path fill="#FFFFFF" d="M310.548,348.16c0,0.797-0.646,1.443-1.443,1.443h-10.466c-0.797,0-1.443-0.646-1.443-1.443v-9.744
		c0-0.797,0.646-1.443,1.443-1.443h10.466c0.797,0,1.443,0.646,1.443,1.443V348.16z"/>
	<path fill="#FFFFFF" d="M325.685,348.16c0,0.797-0.645,1.443-1.443,1.443h-10.466c-0.798,0-1.443-0.646-1.443-1.443v-9.744
		c0-0.797,0.645-1.443,1.443-1.443h10.466c0.798,0,1.443,0.646,1.443,1.443V348.16z"/>
	<path fill="#FFFFFF" d="M340.823,348.16c0,0.797-0.646,1.443-1.443,1.443h-10.466c-0.797,0-1.443-0.646-1.443-1.443v-9.744
		c0-0.797,0.646-1.443,1.443-1.443h10.466c0.797,0,1.443,0.646,1.443,1.443V348.16z"/>
	<path fill="#FFFFFF" d="M355.96,348.16c0,0.797-0.645,1.443-1.442,1.443h-10.466c-0.797,0-1.443-0.646-1.443-1.443v-9.744
		c0-0.797,0.646-1.443,1.443-1.443h10.466c0.798,0,1.442,0.646,1.442,1.443V348.16z"/>
	<path fill="#FFFFFF" d="M371.098,348.16c0,0.797-0.646,1.443-1.443,1.443h-10.465c-0.798,0-1.443-0.646-1.443-1.443v-9.744
		c0-0.797,0.646-1.443,1.443-1.443h10.465c0.798,0,1.443,0.646,1.443,1.443V348.16z"/>
	<path fill="#FFFFFF" d="M386.235,348.16c0,0.797-0.646,1.443-1.443,1.443h-10.466c-0.798,0-1.442-0.646-1.442-1.443v-9.744
		c0-0.797,0.645-1.443,1.442-1.443h10.466c0.798,0,1.443,0.646,1.443,1.443V348.16z"/>
	<path fill="#FFFFFF" d="M401.373,348.16c0,0.797-0.646,1.443-1.443,1.443h-10.466c-0.797,0-1.443-0.646-1.443-1.443v-9.744
		c0-0.797,0.646-1.443,1.443-1.443h10.466c0.798,0,1.443,0.646,1.443,1.443V348.16z"/>
	<path fill="#FFFFFF" d="M416.511,348.16c0,0.797-0.646,1.443-1.443,1.443h-10.466c-0.798,0-1.443-0.646-1.443-1.443v-9.744
		c0-0.797,0.646-1.443,1.443-1.443h10.466c0.798,0,1.443,0.646,1.443,1.443V348.16z"/>
	<path fill="#FFFFFF" d="M431.648,348.16c0,0.797-0.646,1.443-1.443,1.443h-10.466c-0.798,0-1.443-0.646-1.443-1.443v-9.744
		c0-0.797,0.646-1.443,1.443-1.443h10.466c0.798,0,1.443,0.646,1.443,1.443V348.16z"/>
	<path fill="#FFFFFF" d="M258.459,363.154c0,0.479-0.318,0.865-0.714,0.865h-20.053c-0.395,0-0.714-0.387-0.714-0.865v-10.9
		c0-0.477,0.319-0.865,0.714-0.865h20.053c0.396,0,0.714,0.389,0.714,0.865V363.154z"/>
	<path fill="#FFFFFF" d="M263.017,377.572c0,0.477-0.387,0.865-0.865,0.865h-24.309c-0.479,0-0.865-0.389-0.865-0.865V366.67
		c0-0.477,0.387-0.863,0.865-0.863h24.309c0.478,0,0.865,0.387,0.865,0.863V377.572z"/>
	<path fill="#FFFFFF" d="M269.749,391.988c0,0.479-0.487,0.865-1.088,0.865h-30.595c-0.601,0-1.088-0.387-1.088-0.865v-10.9
		c0-0.479,0.487-0.865,1.088-0.865h30.595c0.601,0,1.088,0.387,1.088,0.865V391.988z"/>
	<path fill="#FFFFFF" d="M273.597,362.576c0,0.797-0.646,1.443-1.444,1.443h-10.465c-0.797,0-1.443-0.646-1.443-1.443v-9.744
		c0-0.797,0.646-1.443,1.443-1.443h10.465c0.797,0,1.444,0.646,1.444,1.443V362.576z"/>
	<path fill="#FFFFFF" d="M288.734,362.576c0,0.797-0.646,1.443-1.444,1.443h-10.465c-0.797,0-1.443-0.646-1.443-1.443v-9.744
		c0-0.797,0.646-1.443,1.443-1.443h10.465c0.797,0,1.444,0.646,1.444,1.443V362.576z"/>
	<path fill="#FFFFFF" d="M303.872,362.576c0,0.797-0.646,1.443-1.443,1.443h-10.465c-0.798,0-1.444-0.646-1.444-1.443v-9.744
		c0-0.797,0.646-1.443,1.444-1.443h10.465c0.797,0,1.443,0.646,1.443,1.443V362.576z"/>
	<path fill="#FFFFFF" d="M319.009,362.576c0,0.797-0.646,1.443-1.444,1.443H307.1c-0.797,0-1.443-0.646-1.443-1.443v-9.744
		c0-0.797,0.646-1.443,1.443-1.443h10.465c0.798,0,1.444,0.646,1.444,1.443V362.576z"/>
	<path fill="#FFFFFF" d="M334.147,362.576c0,0.797-0.646,1.443-1.444,1.443h-10.465c-0.797,0-1.444-0.646-1.444-1.443v-9.744
		c0-0.797,0.646-1.443,1.444-1.443h10.465c0.797,0,1.444,0.646,1.444,1.443V362.576z"/>
	<path fill="#FFFFFF" d="M349.284,362.576c0,0.797-0.646,1.443-1.443,1.443h-10.465c-0.797,0-1.444-0.646-1.444-1.443v-9.744
		c0-0.797,0.646-1.443,1.444-1.443h10.465c0.797,0,1.443,0.646,1.443,1.443V362.576z"/>
	<path fill="#FFFFFF" d="M364.421,362.576c0,0.797-0.646,1.443-1.442,1.443h-10.466c-0.797,0-1.443-0.646-1.443-1.443v-9.744
		c0-0.797,0.646-1.443,1.443-1.443h10.466c0.797,0,1.442,0.646,1.442,1.443V362.576z"/>
	<path fill="#FFFFFF" d="M379.559,362.576c0,0.797-0.646,1.443-1.442,1.443h-10.467c-0.798,0-1.442-0.646-1.442-1.443v-9.744
		c0-0.797,0.645-1.443,1.442-1.443h10.467c0.797,0,1.442,0.646,1.442,1.443V362.576z"/>
	<path fill="#FFFFFF" d="M394.696,362.576c0,0.797-0.646,1.443-1.443,1.443h-10.466c-0.798,0-1.442-0.646-1.442-1.443v-9.744
		c0-0.797,0.645-1.443,1.442-1.443h10.466c0.798,0,1.443,0.646,1.443,1.443V362.576z"/>
	<path fill="#FFFFFF" d="M409.834,362.576c0,0.797-0.646,1.443-1.443,1.443h-10.466c-0.798,0-1.443-0.646-1.443-1.443v-9.744
		c0-0.797,0.646-1.443,1.443-1.443h10.466c0.798,0,1.443,0.646,1.443,1.443V362.576z"/>
	<path fill="#FFFFFF" d="M424.971,362.576c0,0.797-0.645,1.443-1.442,1.443h-10.466c-0.798,0-1.443-0.646-1.443-1.443v-9.744
		c0-0.797,0.646-1.443,1.443-1.443h10.466c0.798,0,1.442,0.646,1.442,1.443V362.576z"/>
	<path fill="#FFFFFF" d="M440.108,362.576c0,0.797-0.646,1.443-1.442,1.443H428.2c-0.798,0-1.443-0.646-1.443-1.443v-9.744
		c0-0.797,0.646-1.443,1.443-1.443h10.466c0.797,0,1.442,0.646,1.442,1.443V362.576z"/>
	<path fill="#FFFFFF" d="M455.246,362.576c0,0.797-0.646,1.443-1.442,1.443h-10.467c-0.797,0-1.442-0.646-1.442-1.443v-9.744
		c0-0.797,0.646-1.443,1.442-1.443h10.467c0.797,0,1.442,0.646,1.442,1.443V362.576z"/>
	<path fill="#FFFFFF" d="M455.057,348.738c0,0.479-0.317,0.865-0.713,0.865H434.29c-0.394,0-0.713-0.387-0.713-0.865v-10.9
		c0-0.479,0.319-0.865,0.713-0.865h20.054c0.396,0,0.713,0.387,0.713,0.865V348.738z"/>
	<path fill="#FFFFFF" d="M278.488,376.994c0,0.797-0.647,1.443-1.444,1.443H266.58c-0.797,0-1.445-0.646-1.445-1.443v-9.744
		c0-0.799,0.647-1.443,1.445-1.443h10.464c0.797,0,1.444,0.645,1.444,1.443V376.994z"/>
	<path fill="#FFFFFF" d="M293.626,376.994c0,0.797-0.647,1.443-1.444,1.443h-10.465c-0.797,0-1.444-0.646-1.444-1.443v-9.744
		c0-0.799,0.647-1.443,1.444-1.443h10.465c0.797,0,1.444,0.645,1.444,1.443V376.994z"/>
	<path fill="#FFFFFF" d="M308.764,376.994c0,0.797-0.647,1.443-1.444,1.443h-10.465c-0.797,0-1.444-0.646-1.444-1.443v-9.744
		c0-0.799,0.647-1.443,1.444-1.443h10.465c0.797,0,1.444,0.645,1.444,1.443V376.994z"/>
	<path fill="#FFFFFF" d="M323.901,376.994c0,0.797-0.647,1.443-1.445,1.443h-10.464c-0.797,0-1.444-0.646-1.444-1.443v-9.744
		c0-0.799,0.647-1.443,1.444-1.443h10.464c0.797,0,1.445,0.645,1.445,1.443V376.994z"/>
	<path fill="#FFFFFF" d="M339.039,376.994c0,0.797-0.647,1.443-1.444,1.443H327.13c-0.798,0-1.445-0.646-1.445-1.443v-9.744
		c0-0.799,0.647-1.443,1.445-1.443h10.464c0.797,0,1.444,0.645,1.444,1.443V376.994z"/>
	<path fill="#FFFFFF" d="M354.177,376.994c0,0.797-0.647,1.443-1.445,1.443h-10.464c-0.797,0-1.444-0.646-1.444-1.443v-9.744
		c0-0.799,0.647-1.443,1.444-1.443h10.464c0.798,0,1.445,0.645,1.445,1.443V376.994z"/>
	<path fill="#FFFFFF" d="M369.313,376.994c0,0.797-0.647,1.443-1.444,1.443h-10.465c-0.797,0-1.444-0.646-1.444-1.443v-9.744
		c0-0.799,0.647-1.443,1.444-1.443h10.465c0.797,0,1.444,0.645,1.444,1.443V376.994z"/>
	<path fill="#FFFFFF" d="M384.451,376.994c0,0.797-0.647,1.443-1.444,1.443h-10.465c-0.797,0-1.444-0.646-1.444-1.443v-9.744
		c0-0.799,0.647-1.443,1.444-1.443h10.465c0.797,0,1.444,0.645,1.444,1.443V376.994z"/>
	<path fill="#FFFFFF" d="M399.589,376.994c0,0.797-0.647,1.443-1.444,1.443H387.68c-0.798,0-1.444-0.646-1.444-1.443v-9.744
		c0-0.799,0.646-1.443,1.444-1.443h10.465c0.797,0,1.444,0.645,1.444,1.443V376.994z"/>
	<path fill="#FFFFFF" d="M414.727,376.994c0,0.797-0.647,1.443-1.444,1.443h-10.465c-0.798,0-1.444-0.646-1.444-1.443v-9.744
		c0-0.799,0.646-1.443,1.444-1.443h10.465c0.797,0,1.444,0.645,1.444,1.443V376.994z"/>
	<path fill="#FFFFFF" d="M429.864,376.994c0,0.797-0.647,1.443-1.445,1.443h-10.464c-0.798,0-1.444-0.646-1.444-1.443v-9.744
		c0-0.799,0.646-1.443,1.444-1.443h10.464c0.798,0,1.445,0.645,1.445,1.443V376.994z"/>
	<path fill="#FFFFFF" d="M455.246,377.572c0,0.477-0.387,0.865-0.865,0.865h-21.868c-0.478,0-0.864-0.389-0.864-0.865V366.67
		c0-0.477,0.387-0.863,0.864-0.863h21.868c0.479,0,0.865,0.387,0.865,0.863V377.572z"/>
	<path fill="#FFFFFF" d="M285.164,391.41c0,0.797-0.646,1.443-1.443,1.443h-10.466c-0.797,0-1.443-0.646-1.443-1.443v-9.744
		c0-0.797,0.646-1.443,1.443-1.443h10.466c0.797,0,1.443,0.646,1.443,1.443V391.41z"/>
	<path fill="#FFFFFF" d="M300.157,391.41c0,0.797-0.647,1.443-1.444,1.443h-10.464c-0.797,0-1.445-0.646-1.445-1.443v-9.744
		c0-0.797,0.647-1.443,1.445-1.443h10.464c0.797,0,1.444,0.646,1.444,1.443V391.41z"/>
	<path fill="#FFFFFF" d="M315.062,391.41c0,0.797-0.647,1.443-1.445,1.443h-10.464c-0.797,0-1.444-0.646-1.444-1.443v-9.744
		c0-0.797,0.647-1.443,1.444-1.443h10.464c0.798,0,1.445,0.646,1.445,1.443V391.41z"/>
	<path fill="#FFFFFF" d="M329.966,391.41c0,0.797-0.647,1.443-1.444,1.443h-10.465c-0.797,0-1.444-0.646-1.444-1.443v-9.744
		c0-0.797,0.647-1.443,1.444-1.443h10.465c0.797,0,1.444,0.646,1.444,1.443V391.41z"/>
	<path fill="#FFFFFF" d="M344.871,391.41c0,0.797-0.647,1.443-1.444,1.443h-10.464c-0.798,0-1.445-0.646-1.445-1.443v-9.744
		c0-0.797,0.647-1.443,1.445-1.443h10.464c0.797,0,1.444,0.646,1.444,1.443V391.41z"/>
	<path fill="#FFFFFF" d="M359.775,391.41c0,0.797-0.647,1.443-1.445,1.443h-10.464c-0.798,0-1.445-0.646-1.445-1.443v-9.744
		c0-0.797,0.647-1.443,1.445-1.443h10.464c0.798,0,1.445,0.646,1.445,1.443V391.41z"/>
	<path fill="#FFFFFF" d="M374.68,391.41c0,0.797-0.647,1.443-1.444,1.443h-10.465c-0.798,0-1.444-0.646-1.444-1.443v-9.744
		c0-0.797,0.646-1.443,1.444-1.443h10.465c0.797,0,1.444,0.646,1.444,1.443V391.41z"/>
	<path fill="#FFFFFF" d="M389.584,391.41c0,0.797-0.647,1.443-1.444,1.443h-10.465c-0.797,0-1.444-0.646-1.444-1.443v-9.744
		c0-0.797,0.647-1.443,1.444-1.443h10.465c0.797,0,1.444,0.646,1.444,1.443V391.41z"/>
	<path fill="#FFFFFF" d="M404.488,391.41c0,0.797-0.647,1.443-1.444,1.443h-10.465c-0.797,0-1.444-0.646-1.444-1.443v-9.744
		c0-0.797,0.647-1.443,1.444-1.443h10.465c0.797,0,1.444,0.646,1.444,1.443V391.41z"/>
	<path fill="#FFFFFF" d="M419.393,391.41c0,0.797-0.647,1.443-1.444,1.443h-10.465c-0.797,0-1.444-0.646-1.444-1.443v-9.744
		c0-0.797,0.647-1.443,1.444-1.443h10.465c0.797,0,1.444,0.646,1.444,1.443V391.41z"/>
	<path fill="#FFFFFF" d="M455.081,391.988c0,0.479-0.506,0.865-1.129,0.865h-31.699c-0.623,0-1.129-0.387-1.129-0.865v-10.9
		c0-0.479,0.506-0.865,1.129-0.865h31.699c0.623,0,1.129,0.387,1.129,0.865V391.988z"/>
	<path fill="#FFFFFF" d="M250.331,405.826c0,0.799-0.646,1.443-1.443,1.443h-10.465c-0.798,0-1.444-0.645-1.444-1.443v-9.742
		c0-0.799,0.646-1.445,1.444-1.445h10.465c0.797,0,1.443,0.646,1.443,1.445V405.826z"/>
	<path fill="#FFFFFF" d="M265.135,405.826c0,0.799-0.645,1.443-1.442,1.443h-10.466c-0.797,0-1.443-0.645-1.443-1.443v-9.742
		c0-0.799,0.646-1.445,1.443-1.445h10.466c0.797,0,1.442,0.646,1.442,1.445V405.826z"/>
	<path fill="#FFFFFF" d="M279.939,405.826c0,0.799-0.646,1.443-1.443,1.443h-10.465c-0.797,0-1.444-0.645-1.444-1.443v-9.742
		c0-0.799,0.646-1.445,1.444-1.445h10.465c0.797,0,1.443,0.646,1.443,1.445V405.826z"/>
	<path fill="#FFFFFF" d="M455.081,405.826c0,0.799-0.646,1.443-1.443,1.443h-10.466c-0.798,0-1.443-0.645-1.443-1.443v-9.742
		c0-0.799,0.646-1.445,1.443-1.445h10.466c0.798,0,1.443,0.646,1.443,1.445V405.826z"/>
	<path fill="#FFFFFF" d="M440.11,405.826c0,0.799-0.647,1.443-1.444,1.443h-10.465c-0.797,0-1.444-0.645-1.444-1.443v-9.742
		c0-0.799,0.647-1.445,1.444-1.445h10.465c0.797,0,1.444,0.646,1.444,1.445V405.826z"/>
	<path fill="#FFFFFF" d="M425.139,405.826c0,0.799-0.646,1.443-1.443,1.443h-10.466c-0.798,0-1.442-0.645-1.442-1.443v-9.742
		c0-0.799,0.645-1.445,1.442-1.445h10.466c0.798,0,1.443,0.646,1.443,1.445V405.826z"/>
	<path fill="#FFFFFF" d="M410.168,405.826c0,0.799-0.646,1.443-1.444,1.443h-10.465c-0.797,0-1.444-0.645-1.444-1.443v-9.742
		c0-0.799,0.647-1.445,1.444-1.445h10.465c0.798,0,1.444,0.646,1.444,1.445V405.826z"/>
	<path fill="#FFFFFF" d="M395.196,405.826c0,0.799-0.646,1.443-1.442,1.443h-10.467c-0.798,0-1.442-0.645-1.442-1.443v-9.742
		c0-0.799,0.645-1.445,1.442-1.445h10.467c0.797,0,1.442,0.646,1.442,1.445V405.826z"/>
	<path fill="#FFFFFF" d="M380.325,406.404c0,0.479-0.387,0.865-0.865,0.865h-97.204c-0.477,0-0.865-0.387-0.865-0.865v-10.9
		c0-0.477,0.388-0.865,0.865-0.865h97.204c0.479,0,0.865,0.389,0.865,0.865V406.404z"/>
</g>
<g id="base">
	<rect x="295.999" y="316.219" fill="#E4E7ED" width="97.743" height="4.326"/>
	<polygon fill="#E4E7ED" points="384.229,309.424 379.038,285.945 345.303,285.945 344.438,285.945 310.703,285.945 
		305.513,309.424 295.999,316.219 393.742,316.219 	"/>
	<g>
		<polygon fill="#CCD0D8" points="305.513,309.424 295.999,316.219 393.742,316.219 384.229,309.424 384.201,309.301 
			305.541,309.301 		"/>
		<polygon fill="#CCD0D8" points="379.867,289.695 379.038,285.945 345.303,285.945 344.438,285.945 310.703,285.945 
			309.874,289.695 		"/>
	</g>
</g>
<g id="monitor">
	<path fill="#626F7A" d="M540.361,272.088c0,7.654-6.584,13.857-14.705,13.857H164.085c-8.121,0-14.705-6.203-14.705-13.857V16.948
		c0-7.653,6.584-13.858,14.705-13.858h361.571c8.121,0,14.705,6.205,14.705,13.858V272.088z"/>
	<rect x="166.7" y="20.04" fill="#F8B25E" width="356.341" height="201.103"/>
	<path fill="#E4E7ED" d="M149.38,239.234v36.123c0,5.848,6.584,10.588,14.705,10.588h361.571c8.121,0,14.705-4.74,14.705-10.588
		v-36.123H149.38z"/>
	<circle fill="#A5AFB7" cx="344.871" cy="11.497" r="2.65"/>
	<path opacity="0.4" fill="#FFFFFF" d="M525.656,3.09H403.76L231.356,285.945h294.3c8.121,0,14.705-6.203,14.705-13.857V16.948
		C540.361,9.294,533.777,3.09,525.656,3.09z"/>
</g>
<g id="mouse">
	<path fill="#E4E7ED" d="M199.398,376.018c0,10.986-8.907,19.895-19.895,19.895l0,0c-10.988,0-19.895-8.908-19.895-19.895v-36.625
		c0-10.988,8.907-19.895,19.895-19.895l0,0c10.988,0,19.895,8.906,19.895,19.895V376.018z"/>
	<path opacity="0.8" fill="#FFFFFF" d="M179.503,319.498c-4.26,0-8.198,1.351-11.435,3.63c11.191,5.015,18.663,4.355,25.304,15.179
		c1.931,3.146,4.07,7.333,6.026,11.424v-10.338C199.398,328.404,190.492,319.498,179.503,319.498z"/>
	<circle fill="#626F7A" cx="179.504" cy="336.576" r="3.543"/>
</g>
<g id="paper">
	<g>
		<polygon fill="#D0EBE9" points="112.217,195.208 29.432,195.811 30.496,341.447 136.077,340.678 135.203,220.932 		"/>
		<polygon fill="#83CFCE" points="112.406,221.098 135.203,220.932 112.217,195.208 		"/>
	</g>
	<g>
		<line fill="none" stroke="#FFFFFF" stroke-width="10" stroke-miterlimit="10" x1="49.4" y1="245.109" x2="94.6" y2="244.777"/>
		
			<line fill="none" stroke="#FFFFFF" stroke-width="10" stroke-miterlimit="10" x1="49.505" y1="261.139" x2="115.871" y2="260.654"/>
		
			<line fill="none" stroke="#FFFFFF" stroke-width="10" stroke-miterlimit="10" x1="49.609" y1="277.172" x2="115.975" y2="276.686"/>
		
			<line fill="none" stroke="#FFFFFF" stroke-width="10" stroke-miterlimit="10" x1="49.714" y1="293.201" x2="116.08" y2="292.717"/>
	</g>
</g>
<g id="window1">
	<path fill="#FFFFFF" d="M356.451,185.622c0,1.912-1.321,3.46-2.95,3.46H185.995c-1.628,0-2.949-1.549-2.949-3.46V58.906
		c0-1.911,1.32-3.46,2.949-3.46h167.506c1.629,0,2.95,1.549,2.95,3.46V185.622z"/>
	<g>
		<rect x="231.36" y="68.561" fill="none" width="89.056" height="93.107"/>
		<rect x="231.36" y="161.668" fill="#F4F4F4" width="89.056" height="4.504"/>
		<rect x="231.36" y="166.172" fill="#FFFFFF" width="89.056" height="22.911"/>
		<path fill="#F4F4F4" d="M231.36,161.668V68.561h-48.313v117.062c0,1.912,1.32,3.46,2.949,3.46h45.365v-22.911V161.668z"/>
		<path fill="#F4F4F4" d="M320.416,161.668v4.504v22.911h33.085c1.629,0,2.95-1.549,2.95-3.46V68.561h-36.035V161.668z"/>
		<path fill="#E9E9E9" d="M320.416,68.561h36.035v-9.654c0-1.911-1.321-3.46-2.95-3.46H185.995c-1.628,0-2.949,1.549-2.949,3.46
			v9.654h48.313H320.416z"/>
	</g>
	<g>
		<circle fill="#EE7D62" cx="188.412" cy="61.583" r="1.903"/>
		<circle fill="#EFCB35" cx="194.814" cy="61.583" r="1.903"/>
		<circle fill="#8EC858" cx="201.215" cy="61.583" r="1.903"/>
	</g>
	<path fill="#FFFFFF" d="M303.611,64.156c0,0.478-0.307,0.865-0.686,0.865h-66.354c-0.379,0-0.686-0.388-0.686-0.865v-4.418
		c0-0.478,0.307-0.865,0.686-0.865h66.354c0.379,0,0.686,0.388,0.686,0.865V64.156z"/>
	<g>
		<path fill="#FFFFFF" d="M213.411,64.357c0,0.366-0.245,0.664-0.547,0.664h-6.61c-0.302,0-0.547-0.298-0.547-0.664v-4.82
			c0-0.367,0.246-0.664,0.547-0.664h6.61c0.302,0,0.547,0.297,0.547,0.664V64.357z"/>
		<polygon fill="#333333" points="208.503,60.437 208.503,63.458 210.614,61.823 		"/>
	</g>
	<g>
		<path fill="#FFFFFF" d="M222.926,64.357c0,0.366-0.245,0.664-0.547,0.664h-6.609c-0.302,0-0.547-0.298-0.547-0.664v-4.82
			c0-0.367,0.245-0.664,0.547-0.664h6.609c0.303,0,0.547,0.297,0.547,0.664V64.357z"/>
		<rect x="217.563" y="60.437" fill="#999999" width="3.021" height="3.021"/>
	</g>
	<g>
		<rect x="193.145" y="81.537" fill="#E2C751" width="6.401" height="4.541"/>
		<rect x="200.065" y="88.025" fill="#E2C751" width="6.401" height="4.541"/>
		<rect x="200.065" y="94.512" fill="#E2C751" width="6.401" height="4.542"/>
		<rect x="200.065" y="120.463" fill="#E2C751" width="6.401" height="4.541"/>
		<rect x="193.145" y="126.949" fill="#E2C751" width="6.401" height="4.542"/>
		<rect x="193.145" y="133.438" fill="#E2C751" width="6.401" height="4.541"/>
		<rect x="193.145" y="139.925" fill="#E2C751" width="6.401" height="4.542"/>
		<rect x="193.145" y="146.412" fill="#E2C751" width="6.401" height="4.541"/>
		<rect x="201.943" y="82.202" fill="#CCCCCC" width="19.903" height="3.212"/>
		<rect x="208.932" y="88.689" fill="#CCCCCC" width="15.823" height="3.212"/>
		<rect x="208.932" y="95.178" fill="#CCCCCC" width="15.823" height="3.211"/>
		<rect x="208.932" y="101.664" fill="#CCCCCC" width="15.823" height="3.213"/>
		<rect x="208.932" y="107.925" fill="#CCCCCC" width="15.823" height="3.212"/>
		<rect x="208.932" y="114.64" fill="#CCCCCC" width="15.823" height="3.212"/>
		<rect x="208.932" y="121.127" fill="#CCCCCC" width="15.823" height="3.212"/>
		<rect x="201.943" y="127.615" fill="#CCCCCC" width="19.903" height="3.211"/>
		<rect x="201.943" y="134.102" fill="#CCCCCC" width="19.903" height="3.213"/>
		<rect x="201.943" y="140.59" fill="#CCCCCC" width="19.903" height="3.211"/>
		<rect x="201.943" y="147.077" fill="#CCCCCC" width="19.903" height="3.212"/>
		<rect x="195.379" y="75.498" fill="#CCCCCC" width="22.966" height="3.211"/>
		<rect x="200.534" y="100.514" fill="#DEDDDD" width="5.462" height="5.514"/>
		<rect x="200.534" y="107.001" fill="#DEDDDD" width="5.462" height="5.515"/>
		<rect x="200.534" y="113.488" fill="#DEDDDD" width="5.462" height="5.515"/>
		<rect x="187.396" y="74.347" fill="#5AACDF" width="5.462" height="5.515"/>
	</g>
	<g>
		<path fill="none" stroke="#CCCCCC" stroke-width="0.5" stroke-miterlimit="10" d="M272.347,106.223
			c0,0.412-0.135,0.746-0.301,0.746H254.97c-0.166,0-0.3-0.334-0.3-0.746V78.908c0-0.412,0.135-0.746,0.3-0.746h17.076
			c0.166,0,0.301,0.334,0.301,0.746V106.223z"/>
		<path fill="#E9E9E9" d="M272.046,78.162H254.97c-0.166,0-0.3,0.334-0.3,0.746v0.955h17.677v-0.955
			C272.347,78.496,272.212,78.162,272.046,78.162z"/>
	</g>
	<g>
		<path fill="none" stroke="#CCCCCC" stroke-width="0.5" stroke-miterlimit="10" d="M300.229,106.223
			c0,0.412-0.135,0.746-0.301,0.746h-17.075c-0.166,0-0.3-0.334-0.3-0.746V78.908c0-0.412,0.135-0.746,0.3-0.746h17.075
			c0.166,0,0.301,0.334,0.301,0.746V106.223z"/>
		<path fill="#E9E9E9" d="M299.929,78.162h-17.075c-0.166,0-0.3,0.334-0.3,0.746v0.955h17.676v-0.955
			C300.229,78.496,300.095,78.162,299.929,78.162z"/>
	</g>
	<g>
		<path fill="none" stroke="#CCCCCC" stroke-width="0.5" stroke-miterlimit="10" d="M300.229,149.365
			c0,0.412-0.135,0.746-0.301,0.746h-17.075c-0.166,0-0.3-0.334-0.3-0.746v-27.314c0-0.412,0.135-0.746,0.3-0.746h17.075
			c0.166,0,0.301,0.334,0.301,0.746V149.365z"/>
		<path fill="#E9E9E9" d="M299.929,121.305h-17.075c-0.166,0-0.3,0.334-0.3,0.746v0.954h17.676v-0.954
			C300.229,121.639,300.095,121.305,299.929,121.305z"/>
	</g>
	
		<line fill="none" stroke="#CCCCCC" stroke-width="0.5" stroke-miterlimit="10" x1="272.347" y1="91.901" x2="282.553" y2="91.901"/>
	
		<line fill="none" stroke="#CCCCCC" stroke-width="0.5" stroke-miterlimit="10" x1="244.292" y1="91.901" x2="254.499" y2="91.901"/>
	
		<line fill="none" stroke="#CCCCCC" stroke-width="0.5" stroke-miterlimit="10" x1="291.391" y1="106.969" x2="291.391" y2="120.957"/>
	
		<line fill="none" stroke="#CCCCCC" stroke-width="0.5" stroke-miterlimit="10" x1="252.769" y1="90.295" x2="254.499" y2="91.901"/>
	
		<line fill="none" stroke="#CCCCCC" stroke-width="0.5" stroke-miterlimit="10" x1="252.831" y1="93.631" x2="254.437" y2="91.901"/>
	<circle fill="#FFFFFF" stroke="#CCCCCC" stroke-width="0.5" stroke-miterlimit="10" cx="291.391" cy="113.963" r="1.687"/>
</g>
<g id="window2">
	<path fill="#3F403F" d="M502.706,203.362c0,2.432-0.958,4.402-2.14,4.402H379.099c-1.182,0-2.139-1.971-2.139-4.402V42.104
		c0-2.432,0.957-4.403,2.139-4.403h121.468c1.182,0,2.14,1.972,2.14,4.403V203.362z"/>
	<g>
		<path fill="#636464" d="M384.187,52.118h-7.227v151.244c0,2.432,0.957,4.402,2.139,4.402h5.088V52.118z"/>
		<polygon fill="#FFFFFF" points="502.706,52.118 502.706,47.738 376.96,47.738 376.96,52.118 384.187,52.118 		"/>
		<path fill="#E9E9E9" d="M502.706,47.738v-5.634c0-2.432-0.958-4.403-2.14-4.403H379.099c-1.182,0-2.139,1.972-2.139,4.403v5.634
			H502.706z"/>
	</g>
	<circle fill="#EE7D62" cx="381.461" cy="42.973" r="1.903"/>
	<circle fill="#EFCB35" cx="387.862" cy="42.973" r="1.903"/>
	<circle fill="#8EC858" cx="394.263" cy="42.973" r="1.903"/>
	<g id="window2Code">
		<rect x="391.477" y="65.93" fill="#D8A7C9" width="41.553" height="3.211"/>
		<rect x="398.76" y="74.579" fill="#9BC9DD" width="50.243" height="3.212"/>
		<rect x="406.039" y="83.229" fill="#ABABAB" width="56.244" height="3.212"/>
		<rect x="406.039" y="91.879" fill="#ABABAB" width="56.244" height="3.212"/>
		<rect x="406.039" y="100.529" fill="#ABABAB" width="56.244" height="3.212"/>
		<rect x="406.039" y="109.18" fill="#ABABAB" width="56.244" height="3.211"/>
		<rect x="406.039" y="117.829" fill="#ABABAB" width="56.244" height="3.212"/>
		<rect x="398.76" y="126.479" fill="#9BC9DD" width="50.243" height="3.212"/>
		<rect x="391.477" y="135.129" fill="#D8A7C9" width="41.553" height="3.212"/>
	</g>
</g>
<g id="pad">
	<path fill="#626F7A" d="M721.142,333.664c0,4.521-3.465,8.188-7.739,8.188H499.609c-4.273,0-7.739-3.666-7.739-8.188V197.883
		c0-4.521,3.466-8.188,7.739-8.188h213.793c4.274,0,7.739,3.666,7.739,8.188V333.664z"/>
	<g>
		<polygon fill="#83CFCE" points="513.319,197.282 513.319,334.266 607.131,334.266 666.23,197.282 		"/>
		<path opacity="0.4" fill="#FFFFFF" d="M713.402,341.852c4.274,0,7.739-3.666,7.739-8.188V197.883c0-4.521-3.465-8.188-7.739-8.188
			h-43.899l-3.272,7.586h33.464v136.984h-92.563l-3.272,7.586H713.402z"/>
		<polygon fill="#83CFCE" points="699.694,197.282 666.23,197.282 607.131,334.266 699.694,334.266 		"/>
		<polygon opacity="0.4" fill="#FFFFFF" points="699.694,197.282 666.23,197.282 607.131,334.266 699.694,334.266 		"/>
	</g>
	<ellipse fill="#A5AFB7" cx="502.206" cy="265.773" rx="1.568" ry="1.594"/>
	<ellipse fill="#737F87" cx="710.172" cy="265.773" rx="5.621" ry="5.713"/>
	<path fill="none" stroke="#FFFFFF" stroke-width="2" stroke-miterlimit="10" d="M711.13,263.221c0.792,0,1.435,0.654,1.435,1.461
		v2.186c0,0.807-0.643,1.461-1.435,1.461h-1.914c-0.794,0-1.437-0.654-1.437-1.461v-2.186c0-0.807,0.643-1.461,1.437-1.461H711.13z"
		/>
	<path opacity="0.6" fill="#5C6770" d="M704.551,265.773c0,3.156,2.516,5.713,5.621,5.713v-11.426
		C707.066,260.061,704.551,262.619,704.551,265.773z"/>
	<g id="world">
		<path fill="#FFFFFF" d="M600.927,219.205l2.189,14.82h0.061l1.5-14.82h5.399l-3.66,21.42h-6.12l-1.859-14.4h-0.061l-1.859,14.4
			h-6.12l-3.66-21.42h5.4l1.68,14.82h0.06l2.011-14.82H600.927z"/>
		<path fill="#FFFFFF" d="M611.906,224.8c0.26-1.41,0.689-2.56,1.29-3.45c0.6-0.89,1.39-1.539,2.37-1.949
			c0.979-0.41,2.18-0.615,3.6-0.615s2.62,0.205,3.601,0.615c0.979,0.41,1.77,1.06,2.369,1.949c0.601,0.891,1.03,2.04,1.29,3.45
			s0.391,3.115,0.391,5.115s-0.131,3.705-0.391,5.115s-0.689,2.56-1.29,3.45c-0.6,0.89-1.39,1.524-2.369,1.904
			c-0.98,0.38-2.181,0.57-3.601,0.57s-2.62-0.19-3.6-0.57c-0.98-0.38-1.771-1.015-2.37-1.904c-0.601-0.891-1.03-2.04-1.29-3.45
			s-0.39-3.115-0.39-5.115S611.646,226.21,611.906,224.8z M617.336,233.5c0.04,0.95,0.125,1.705,0.255,2.265
			c0.13,0.561,0.32,0.95,0.57,1.17c0.25,0.221,0.585,0.33,1.005,0.33s0.755-0.109,1.005-0.33c0.25-0.22,0.44-0.609,0.57-1.17
			c0.13-0.56,0.215-1.314,0.255-2.265c0.04-0.949,0.061-2.145,0.061-3.585s-0.021-2.635-0.061-3.585s-0.125-1.705-0.255-2.265
			c-0.13-0.561-0.32-0.95-0.57-1.171c-0.25-0.22-0.585-0.329-1.005-0.329s-0.755,0.109-1.005,0.329
			c-0.25,0.221-0.44,0.61-0.57,1.171c-0.13,0.56-0.215,1.314-0.255,2.265s-0.06,2.145-0.06,3.585S617.296,232.551,617.336,233.5z"/>
		<path fill="#FFFFFF" d="M638.306,219.205c1.06,0,1.965,0.14,2.715,0.42s1.36,0.675,1.83,1.185c0.47,0.511,0.811,1.115,1.021,1.815
			s0.314,1.46,0.314,2.28c0,1.439-0.29,2.6-0.87,3.479c-0.58,0.881-1.51,1.421-2.79,1.62v0.061c1.34,0.119,2.261,0.59,2.761,1.409
			c0.499,0.82,0.75,1.95,0.75,3.391v1.83c0,0.28,0,0.569,0,0.87c0,0.3,0.01,0.585,0.029,0.854c0.021,0.271,0.05,0.516,0.091,0.735
			c0.039,0.22,0.09,0.39,0.149,0.51c0.08,0.12,0.16,0.235,0.24,0.345c0.08,0.11,0.21,0.216,0.39,0.315v0.3h-5.939
			c-0.141-0.28-0.245-0.609-0.315-0.99c-0.07-0.38-0.12-0.76-0.149-1.14c-0.03-0.38-0.051-0.745-0.061-1.095
			s-0.015-0.635-0.015-0.855v-1.439c0-0.601-0.03-1.101-0.09-1.5c-0.061-0.4-0.165-0.715-0.315-0.945
			c-0.15-0.229-0.34-0.391-0.57-0.48c-0.229-0.09-0.515-0.135-0.854-0.135h-1.47v8.58h-5.58v-21.42H638.306z M636.266,228.265
			c0.8,0,1.39-0.234,1.771-0.705c0.38-0.47,0.569-1.084,0.569-1.845c0-0.899-0.185-1.54-0.555-1.92s-0.975-0.57-1.814-0.57h-1.08
			v5.04H636.266z"/>
		<path fill="#FFFFFF" d="M653.126,219.205v16.86h6.869v4.56h-12.449v-21.42H653.126z"/>
		<path fill="#FFFFFF" d="M670.286,219.205c1.62,0,2.88,0.295,3.78,0.885c0.899,0.59,1.575,1.38,2.024,2.37
			c0.45,0.99,0.725,2.13,0.825,3.42c0.1,1.29,0.15,2.636,0.15,4.035c0,1.4-0.051,2.745-0.15,4.035
			c-0.101,1.29-0.375,2.43-0.825,3.42c-0.449,0.99-1.125,1.78-2.024,2.37c-0.9,0.59-2.16,0.885-3.78,0.885h-8.1v-21.42H670.286z
			 M668.876,236.605c0.54,0,0.97-0.075,1.29-0.226c0.32-0.149,0.565-0.465,0.735-0.945c0.17-0.479,0.279-1.159,0.33-2.04
			c0.05-0.879,0.075-2.039,0.075-3.479s-0.025-2.6-0.075-3.48c-0.051-0.88-0.16-1.56-0.33-2.04c-0.17-0.479-0.415-0.795-0.735-0.944
			c-0.32-0.15-0.75-0.226-1.29-0.226h-1.109v13.381H668.876z"/>
	</g>
</g>
<g id="phone">
	<path fill="#626F7A" d="M590.876,376.32c0,5.879-4.844,10.643-10.819,10.643h-39.099c-5.976,0-10.819-4.764-10.819-10.643V266.5
		c0-5.879,4.844-10.645,10.819-10.645h39.099c5.976,0,10.819,4.766,10.819,10.645V376.32z"/>
	<rect x="533.58" y="274.604" fill="#F7C43E" width="53.854" height="93.613"/>
	<path opacity="0.4" fill="#FFFFFF" d="M530.139,376.32c0,5.879,4.844,10.643,10.819,10.643h39.099
		c5.976,0,10.819-4.764,10.819-10.643V266.5c0-5.879-4.844-10.645-10.819-10.645h-2.23l-47.688,99.673V376.32z"/>
	<ellipse fill="#737F87" cx="560.508" cy="377.602" rx="5.778" ry="5.686"/>
	<path fill="none" stroke="#FFFFFF" stroke-width="2" stroke-miterlimit="10" d="M563.09,378.568c0,0.803-0.661,1.451-1.477,1.451
		h-2.212c-0.816,0-1.477-0.648-1.477-1.451v-1.936c0-0.801,0.66-1.451,1.477-1.451h2.212c0.815,0,1.477,0.65,1.477,1.451V378.568z"
		/>
	<path opacity="0.6" fill="#5B6770" d="M560.508,371.918c-3.192,0-5.778,2.545-5.778,5.684h11.557
		C566.286,374.463,563.698,371.918,560.508,371.918z"/>
	<ellipse fill="#D5D8DB" cx="560.507" cy="261.854" rx="1.229" ry="1.209"/>
	<path fill="#D5D8DB" d="M566.162,267.004c0,0.629-0.518,1.139-1.157,1.139h-8.996c-0.64,0-1.157-0.51-1.157-1.139l0,0
		c0-0.629,0.518-1.139,1.157-1.139h8.996C565.645,265.865,566.162,266.375,566.162,267.004L566.162,267.004z"/>
	<g id="hello">
		<path fill="#FFFFFF" d="M540.203,309.572v4.913h3.023v-4.913h2.593v12.852h-2.593v-5.706h-3.023v5.706h-2.592v-12.852H540.203z"/>
		<path fill="#FFFFFF" d="M555.251,311.696h-4.59v3.023h4.319v2.124h-4.319v3.456h4.77v2.124h-7.361v-12.852h7.182V311.696z"/>
		<path fill="#FFFFFF" d="M557.177,309.572h2.592V320.3h4.59v2.124h-7.182V309.572z"/>
		<path fill="#FFFFFF" d="M565.961,309.572h2.592V320.3h4.59v2.124h-7.182V309.572z"/>
		<path fill="#FFFFFF" d="M574.609,313.307c0.091-0.821,0.288-1.526,0.595-2.115c0.306-0.587,0.747-1.047,1.322-1.377
			c0.576-0.329,1.351-0.494,2.322-0.494s1.746,0.165,2.322,0.494c0.576,0.33,1.017,0.79,1.323,1.377
			c0.306,0.589,0.504,1.294,0.594,2.115c0.09,0.822,0.135,1.719,0.135,2.691c0,0.983-0.045,1.884-0.135,2.7
			c-0.09,0.815-0.288,1.518-0.594,2.105c-0.307,0.588-0.747,1.038-1.323,1.351c-0.576,0.312-1.351,0.468-2.322,0.468
			s-1.746-0.156-2.322-0.468c-0.575-0.312-1.017-0.763-1.322-1.351c-0.307-0.588-0.504-1.29-0.595-2.105
			c-0.09-0.816-0.135-1.717-0.135-2.7C574.475,315.025,574.52,314.129,574.609,313.307z M577.13,318.203
			c0.042,0.605,0.126,1.098,0.252,1.476s0.306,0.654,0.54,0.828c0.233,0.174,0.543,0.261,0.927,0.261s0.693-0.087,0.927-0.261
			c0.234-0.174,0.414-0.45,0.54-0.828s0.21-0.87,0.252-1.476c0.042-0.606,0.063-1.341,0.063-2.205s-0.021-1.596-0.063-2.196
			c-0.042-0.6-0.126-1.092-0.252-1.476s-0.306-0.663-0.54-0.837c-0.233-0.174-0.543-0.262-0.927-0.262s-0.693,0.088-0.927,0.262
			c-0.234,0.174-0.414,0.453-0.54,0.837s-0.21,0.876-0.252,1.476c-0.042,0.601-0.063,1.332-0.063,2.196
			S577.088,317.597,577.13,318.203z"/>
	</g>
</g>
<g id="glass">
	
		<rect x="106.149" y="311.028" transform="matrix(1 -0.0035 0.0035 1 -1.1204 0.398)" fill="#85B7CE" width="11.595" height="11.809"/>
	<g>
		<path fill="#85B7CE" d="M111.124,244.701c-18.707,0.064-33.82,15.283-33.754,33.99c0.063,18.707,15.281,33.82,33.989,33.756
			c18.708-0.064,33.82-15.283,33.756-33.99C145.051,259.75,129.833,244.637,111.124,244.701z M111.338,306.525
			c-15.437,0.053-27.993-12.416-28.046-27.855c-0.053-15.436,12.416-27.994,27.853-28.045c15.439-0.055,27.995,12.416,28.048,27.852
			C139.247,293.914,126.777,306.473,111.338,306.525z"/>
		<path opacity="0.5" fill="#FFFFFF" d="M111.146,250.625c-15.437,0.051-27.906,12.609-27.853,28.045
			c0.053,15.439,12.609,27.908,28.046,27.855c15.438-0.053,27.909-12.611,27.855-28.049
			C139.141,263.041,126.584,250.57,111.146,250.625z"/>
	</g>
	<path fill="#FFFFFF" d="M115.045,253.643l0.014,3.908c6.44,1.088,11.735,5.555,13.988,11.523l4.071-0.016
		C130.645,260.947,123.63,254.826,115.045,253.643z"/>
	<path fill="#333333" d="M120.949,384.939c0.004,1.004-1.99,2.734-2.912,2.736l-11.689,0.041c-0.923,0.004-2.93-1.715-2.933-2.719
		l1.032-63.67c-0.004-1.006,0.741-1.82,1.664-1.826l11.69-0.039c0.922-0.004,1.673,0.809,1.677,1.812L120.949,384.939z"/>
	
		<line fill="none" stroke="#ABABAB" stroke-width="2" stroke-miterlimit="10" x1="116.985" y1="319.467" x2="117.221" y2="387.679"/>
</g>
<g id="pencil">
	<polygon fill="#F2E2C7" points="15.623,237.445 3.498,237.525 9.399,212.689 	"/>
	<polygon fill="#666766" points="7.204,221.924 11.712,221.895 9.399,212.689 	"/>
	<path fill="#F8C440" d="M16.161,319.375l-0.538-81.93l-0.089,0.002c-0.334-1.941-1.53-3.381-2.949-3.371
		c-1.419,0.01-2.598,1.463-2.904,3.408l-0.22,0.002c-0.332-1.957-1.535-3.406-2.963-3.396c-1.427,0.01-2.611,1.475-2.915,3.436
		H3.498l0.538,81.93L16.161,319.375z"/>
	<path opacity="0.29" fill="#999999" d="M9.561,237.485l-0.1,0.001c-0.332-1.957-1.535-3.406-2.963-3.396
		c-1.427,0.01-2.611,1.475-2.915,3.436H3.498l0.538,81.93l6.063-0.04L9.561,237.485z"/>
	<path fill="#EFC1BB" d="M4.074,325.336c-0.005-0.736,0.501-1.338,1.13-1.342l9.845-0.064c0.63-0.004,1.146,0.59,1.149,1.328
		l0.092,14.018c0.005,0.736-0.501,1.338-1.132,1.34l-9.843,0.066c-0.63,0.004-1.145-0.59-1.149-1.326L4.074,325.336z"/>
	
		<rect x="4.067" y="319.415" transform="matrix(-1 0.0066 -0.0066 -1 22.4007 648.5354)" fill="#E4E7ED" width="12.126" height="9.779"/>
</g>
</svg>